<?xml version="1.0" encoding="utf-8"?>
<!-- Generator: Adobe Illustrator 16.0.4, SVG Export Plug-In . SVG Version: 6.00 Build 0)  -->
<!DOCTYPE svg PUBLIC "-//W3C//DTD SVG 1.1//EN" "http://www.w3.org/Graphics/SVG/1.1/DTD/svg11.dtd">
<svg version="1.1" id="Layer_1" xmlns="http://www.w3.org/2000/svg" xmlns:xlink="http://www.w3.org/1999/xlink" x="0px" y="0px"
	 width="612px" height="792px" viewBox="0 0 612 792" enable-background="new 0 0 612 792" xml:space="preserve">
<g>
	<g>
		<circle fill="#3E8EDE" cx="307.925" cy="380.225" r="36"/>
		<path fill="#FFFFFF" d="M307.924,414.223c-18.746,0-33.997-15.252-33.997-33.998c0-18.748,15.251-34,33.997-34
			c18.748,0,34,15.252,34,34C341.924,398.971,326.672,414.223,307.924,414.223z M307.924,347.225c-18.195,0-32.997,14.804-32.997,33
			c0,18.195,14.802,32.998,32.997,32.998c18.196,0,33-14.803,33-32.998C340.924,362.029,326.12,347.225,307.924,347.225z"/>
		<path fill="#FFFFFF" d="M323.963,367.17c-0.268-8.625-7.35-15.562-16.039-15.562c-8.688,0-15.77,6.938-16.038,15.562h-1.553
			v35.837h35.185V367.17H323.963z M307.924,352.608c8.307,0,15.064,6.758,15.064,15.062c0,5.025-2.482,9.471-6.274,12.209
			l-1.255-12.963h-0.004c-0.38-3.82-3.612-6.816-7.531-6.816c-3.92,0-7.152,2.996-7.532,6.816h-0.003l-1.254,12.963
			c-3.793-2.738-6.274-7.184-6.274-12.209C292.86,359.366,299.617,352.608,307.924,352.608z M307.924,398.232l-1.016-4.613
			c0.337-0.021,0.675-0.035,1.016-0.035s0.679,0.014,1.016,0.035L307.924,398.232z M309.943,393.711
			c5.248,0.627,9.888,3.667,12.557,8.296h-14.383L309.943,393.711z M307.73,402.008h-14.382c2.669-4.629,7.308-7.669,12.556-8.296
			L307.73,402.008z M307.924,392.584c-0.414,0-0.825,0.014-1.233,0.043l-0.307-1.393c0.482,0.08,0.985,0.127,1.514,0.127
			c0.009,0,0.019,0,0.028,0c0.537-0.002,1.049-0.051,1.539-0.135l-0.308,1.4C308.749,392.598,308.338,392.584,307.924,392.584z
			 M307.922,390.362c-0.008,0-0.016,0-0.024,0c-0.625,0-1.2-0.09-1.753-0.213l-1.484-6.75c1.055,0.219,2.146,0.336,3.264,0.336
			s2.209-0.117,3.264-0.336l-1.482,6.74C309.145,390.268,308.559,390.36,307.922,390.362z M300.971,371.286l0.91,4.135
			c-0.555,0.51-1.062,1.068-1.474,1.691L300.971,371.286z M302.314,372.737c0.45,0.498,0.963,0.938,1.53,1.303
			c-0.384,0.199-0.747,0.426-1.096,0.676L302.314,372.737z M304.929,374.622c0.919,0.398,1.932,0.621,2.995,0.621
			c1.064,0,2.076-0.223,2.995-0.621c0.702,0.291,1.354,0.689,1.944,1.166l-1.436,6.518c-1.126,0.271-2.296,0.43-3.504,0.43
			s-2.378-0.158-3.504-0.43l-1.438-6.529C303.57,375.307,304.221,374.915,304.929,374.622z M315.441,377.108
			c-0.411-0.623-0.919-1.18-1.475-1.689l0.91-4.133L315.441,377.108z M313.099,374.713c-0.349-0.25-0.712-0.475-1.095-0.676
			c0.566-0.363,1.08-0.803,1.53-1.303L313.099,374.713z M313.713,376.577c1.043,1.113,1.773,2.49,2.03,3.945
			c-1.007,0.615-2.083,1.123-3.227,1.49L313.713,376.577z M314.493,367.67c0,3.623-2.946,6.572-6.569,6.572s-6.57-2.949-6.57-6.572
			s2.947-6.57,6.57-6.57S314.493,364.047,314.493,367.67z M302.131,376.561l1.2,5.451c-1.144-0.367-2.22-0.875-3.226-1.49
			C300.365,379.042,301.088,377.667,302.131,376.561z M303.574,383.12l1.474,6.695c-1.978-0.771-3.372-2.244-4.062-3.584
			l-3.562-6.432C299.184,381.325,301.273,382.471,303.574,383.12z M312.273,383.12c2.303-0.648,4.393-1.795,6.153-3.322l-3.57,6.445
			c-0.683,1.322-2.073,2.787-4.054,3.562L312.273,383.12z M291.333,368.17h0.553c0.083,2.684,0.82,5.203,2.069,7.402l-0.013,0.008
			l6.162,11.121c0.847,1.645,2.63,3.494,5.199,4.277l0.386,1.75c-5.709,0.713-10.725,4.125-13.486,9.279h-0.87V368.17z
			 M324.518,402.008h-0.872c-2.761-5.154-7.778-8.566-13.487-9.279l0.389-1.76c2.574-0.789,4.354-2.629,5.191-4.254l6.168-11.135
			l-0.013-0.008c1.249-2.199,1.986-4.719,2.069-7.402h0.555V402.008z"/>
	</g>
	<g>
		<g>
			<g>
				<path fill="#231F20" d="M233.76,431.539c-0.707-0.963-1.621-1.572-2.863-1.572c-1.191,0-2.331,0.912-2.331,2.154
					c0,3.219,7.579,1.875,7.579,8.286c0,3.828-2.385,6.539-6.286,6.539c-2.636,0-4.56-1.521-5.88-3.726l2.408-2.357
					c0.507,1.471,1.851,2.789,3.447,2.789c1.519,0,2.458-1.294,2.458-2.764c0-1.977-1.826-2.533-3.319-3.115
					c-2.459-1.014-4.259-2.256-4.259-5.221c0-3.168,2.356-5.727,5.575-5.727c1.699,0,4.055,0.836,5.219,2.127L233.76,431.539z"/>
				<path fill="#231F20" d="M244.4,446.439h-3.725v-15.863h-3.854v-3.244h11.432v3.244H244.4V446.439z"/>
				<polygon fill="#231F20" points="274.642,443.195 276.182,443.195 276.182,446.439 269.377,446.439 269.377,443.195 
					270.917,443.195 270.917,430.576 269.377,430.576 269.377,427.332 276.182,427.332 276.182,430.576 274.642,430.576 				"/>
				<path fill="#231F20" d="M265.074,436.26c1.09,0,1.851,0.455,2.611,1.215v-3.42c-0.861-0.533-1.901-0.786-2.889-0.786
					c-2.438,0-4.43,1.255-5.531,3.146c-2.227-2.015-5.943-2.038-5.943-4.294c0-1.242,1.141-2.154,2.331-2.154
					c1.243,0,2.154,0.609,2.863,1.572l1.749-2.586c-1.165-1.291-3.521-2.127-5.22-2.127c-3.22,0-5.575,2.559-5.575,5.727
					c0,2.965,1.798,4.207,4.259,5.221c1.492,0.582,3.319,1.139,3.319,3.115c0,1.47-0.94,2.764-2.459,2.764
					c-1.597,0-2.94-1.318-3.446-2.789l-2.408,2.357c1.318,2.205,3.244,3.726,5.879,3.726c2.379,0,4.189-1.012,5.243-2.665
					c1.121,1.362,2.785,2.24,4.761,2.24c1.088,0,2.103-0.229,3.066-0.76v-3.422c-0.635,0.711-1.521,1.191-2.484,1.191
					c-2.029,0-3.269-1.621-3.269-3.573C261.933,438.133,263.073,436.26,265.074,436.26z"/>
			</g>
		</g>
		<g>
			<path fill="#231F20" d="M294.167,427.863c-0.335-0.455-0.768-0.744-1.355-0.744c-0.564,0-1.104,0.433-1.104,1.02
				c0,1.523,3.586,0.889,3.586,3.922c0,1.812-1.127,3.095-2.975,3.095c-1.247,0-2.159-0.72-2.782-1.763l1.14-1.115
				c0.239,0.695,0.875,1.318,1.631,1.318c0.72,0,1.163-0.611,1.163-1.307c0-0.936-0.863-1.199-1.571-1.475
				c-1.164-0.48-2.015-1.068-2.015-2.471c0-1.5,1.115-2.711,2.639-2.711c0.804,0,1.919,0.396,2.471,1.008L294.167,427.863z"/>
			<path fill="#231F20" d="M297.983,434.916h-1.763v-9.043h2.398c1.895,0,3.13,0.755,3.13,2.807c0,1.918-1.043,2.854-2.89,2.854
				h-0.876V434.916z M297.983,430.07h0.36c1.043,0,1.607-0.229,1.607-1.403c0-1.163-0.671-1.331-1.655-1.331h-0.312V430.07z"/>
			<path fill="#231F20" d="M303.446,433.009l-0.744,1.907h-1.859l3.526-9.283h1.367l3.431,9.283h-1.884l-0.695-1.907H303.446z
				 M304.969,428.283h-0.023l-0.996,3.286h2.147L304.969,428.283z"/>
			<path fill="#231F20" d="M315.516,428.271c-0.492-0.6-1.235-0.96-1.991-0.96c-1.691,0-2.663,1.56-2.663,3.118
				c0,1.523,1.008,3.047,2.651,3.047c0.755,0,1.511-0.396,2.003-0.959v2.098c-0.66,0.312-1.319,0.54-2.051,0.54
				c-2.543,0-4.426-2.194-4.426-4.689c0-2.566,1.811-4.833,4.461-4.833c0.708,0,1.403,0.191,2.016,0.527V428.271z"/>
			<path fill="#231F20" d="M318.445,427.408v1.99h2.807v1.535h-2.807v2.447h2.914v1.535h-4.677v-9.043h4.677v1.535H318.445z"/>
			<path fill="#231F20" d="M328.944,434.916h-1.763v-7.508h-1.823v-1.535h5.409v1.535h-1.823V434.916z"/>
			<path fill="#231F20" d="M333.182,427.408v1.99h2.806v1.535h-2.806v2.447h2.914v1.535h-4.678v-9.043h4.678v1.535H333.182z"/>
			<path fill="#231F20" d="M339.037,433.381h2.494v1.535h-4.257v-9.043h1.763V433.381z"/>
			<path fill="#231F20" d="M343.861,427.408v1.99h2.807v1.535h-2.807v2.447h2.914v1.535h-4.678v-9.043h4.678v1.535H343.861z"/>
			<path fill="#231F20" d="M352.211,427.863c-0.335-0.455-0.768-0.744-1.354-0.744c-0.563,0-1.104,0.433-1.104,1.02
				c0,1.523,3.586,0.889,3.586,3.922c0,1.812-1.128,3.095-2.975,3.095c-1.247,0-2.159-0.72-2.782-1.763l1.14-1.115
				c0.239,0.695,0.875,1.318,1.631,1.318c0.72,0,1.163-0.611,1.163-1.307c0-0.936-0.863-1.199-1.57-1.475
				c-1.164-0.48-2.016-1.068-2.016-2.471c0-1.5,1.115-2.711,2.639-2.711c0.804,0,1.919,0.396,2.471,1.008L352.211,427.863z"/>
			<path fill="#231F20" d="M360.311,428.271c-0.492-0.6-1.235-0.96-1.991-0.96c-1.69,0-2.662,1.56-2.662,3.118
				c0,1.523,1.007,3.047,2.65,3.047c0.756,0,1.511-0.396,2.003-0.959v2.098c-0.66,0.312-1.319,0.54-2.051,0.54
				c-2.543,0-4.426-2.194-4.426-4.689c0-2.566,1.811-4.833,4.462-4.833c0.707,0,1.403,0.191,2.015,0.527V428.271z"/>
			<path fill="#231F20" d="M361.046,430.382c0-2.53,1.835-4.749,4.474-4.749s4.474,2.219,4.474,4.749
				c0,2.591-1.835,4.773-4.474,4.773S361.046,432.973,361.046,430.382z M362.869,430.311c0,1.367,1.151,3.105,2.65,3.105
				s2.65-1.738,2.65-3.105c0-1.464-1.104-2.939-2.65-2.939S362.869,428.847,362.869,430.311z"/>
			<path fill="#231F20" d="M372.625,434.916h-1.764v-9.043h2.399c1.895,0,3.13,0.755,3.13,2.807c0,1.918-1.043,2.854-2.891,2.854
				h-0.875V434.916z M372.625,430.07h0.359c1.044,0,1.607-0.229,1.607-1.403c0-1.163-0.672-1.331-1.655-1.331h-0.312V430.07z"/>
			<path fill="#231F20" d="M378.961,427.408v1.99h2.807v1.535h-2.807v2.447h2.914v1.535h-4.678v-9.043h4.678v1.535H378.961z"/>
			<path fill="#231F20" d="M294.167,440.863c-0.335-0.455-0.768-0.744-1.355-0.744c-0.564,0-1.104,0.433-1.104,1.02
				c0,1.523,3.586,0.889,3.586,3.922c0,1.812-1.127,3.095-2.975,3.095c-1.247,0-2.159-0.72-2.782-1.763l1.14-1.115
				c0.239,0.695,0.875,1.318,1.631,1.318c0.72,0,1.163-0.611,1.163-1.307c0-0.936-0.863-1.199-1.571-1.475
				c-1.164-0.48-2.015-1.068-2.015-2.471c0-1.5,1.115-2.711,2.639-2.711c0.804,0,1.919,0.396,2.471,1.008L294.167,440.863z"/>
			<path fill="#231F20" d="M302.266,441.271c-0.492-0.6-1.235-0.96-1.991-0.96c-1.691,0-2.663,1.56-2.663,3.118
				c0,1.523,1.007,3.047,2.651,3.047c0.755,0,1.511-0.396,2.003-0.959v2.098c-0.66,0.312-1.319,0.54-2.051,0.54
				c-2.542,0-4.425-2.194-4.425-4.689c0-2.566,1.811-4.833,4.461-4.833c0.708,0,1.403,0.191,2.015,0.527V441.271z"/>
			<path fill="#231F20" d="M305.196,447.916h-1.763v-9.043h1.763V447.916z"/>
			<path fill="#231F20" d="M308.244,440.408v1.99h2.806v1.535h-2.806v2.447h2.914v1.535h-4.678v-9.043h4.678v1.535H308.244z"/>
			<path fill="#231F20" d="M312.337,438.633h1.271l4.762,6.32h0.024v-6.08h1.763v9.223h-1.271l-4.762-6.32H314.1v6.141h-1.763
				V438.633z"/>
			<path fill="#231F20" d="M327.489,441.271c-0.491-0.6-1.235-0.96-1.991-0.96c-1.691,0-2.662,1.56-2.662,3.118
				c0,1.523,1.008,3.047,2.65,3.047c0.756,0,1.512-0.396,2.003-0.959v2.098c-0.659,0.312-1.319,0.54-2.051,0.54
				c-2.543,0-4.426-2.194-4.426-4.689c0-2.566,1.812-4.833,4.462-4.833c0.707,0,1.402,0.191,2.015,0.527V441.271z"/>
			<path fill="#231F20" d="M330.42,440.408v1.99h2.806v1.535h-2.806v2.447h2.914v1.535h-4.678v-9.043h4.678v1.535H330.42z"/>
			<path fill="#231F20" d="M339.743,447.916h-1.763v-9.043h1.763V447.916z"/>
			<path fill="#231F20" d="M341.028,438.633h1.271l4.762,6.32h0.024v-6.08h1.763v9.223h-1.271l-4.762-6.32h-0.023v6.141h-1.763
				V438.633z"/>
			<path fill="#231F20" d="M354.394,440.863c-0.336-0.455-0.768-0.744-1.355-0.744c-0.563,0-1.103,0.433-1.103,1.02
				c0,1.523,3.586,0.889,3.586,3.922c0,1.812-1.128,3.095-2.975,3.095c-1.248,0-2.159-0.72-2.783-1.763l1.14-1.115
				c0.24,0.695,0.876,1.318,1.632,1.318c0.719,0,1.163-0.611,1.163-1.307c0-0.936-0.864-1.199-1.571-1.475
				c-1.164-0.48-2.016-1.068-2.016-2.471c0-1.5,1.116-2.711,2.639-2.711c0.804,0,1.92,0.396,2.471,1.008L354.394,440.863z"/>
			<path fill="#231F20" d="M359.386,447.916h-1.763v-7.508H355.8v-1.535h5.409v1.535h-1.823V447.916z"/>
			<path fill="#231F20" d="M363.623,447.916h-1.764v-9.043h1.764V447.916z"/>
			<path fill="#231F20" d="M367.846,447.916h-1.763v-7.508h-1.823v-1.535h5.409v1.535h-1.823V447.916z"/>
			<path fill="#231F20" d="M370.271,438.873h1.764v5.061c0,1.115,0.096,2.687,1.595,2.687s1.595-1.571,1.595-2.687v-5.061h1.764
				v5.408c0,2.207-0.936,3.874-3.358,3.874s-3.358-1.667-3.358-3.874V438.873z"/>
			<path fill="#231F20" d="M381.178,447.916h-1.763v-7.508h-1.823v-1.535h5.409v1.535h-1.823V447.916z"/>
			<path fill="#231F20" d="M385.414,440.408v1.99h2.807v1.535h-2.807v2.447h2.914v1.535h-4.677v-9.043h4.677v1.535H385.414z"/>
		</g>
		<rect x="282.687" y="425.869" fill="#231F20" width="1" height="22.057"/>
	</g>
</g>
</svg>
