<?xml version="1.0" encoding="utf-8"?>
<!-- Generator: Adobe Illustrator 16.0.4, SVG Export Plug-In . SVG Version: 6.00 Build 0)  -->
<!DOCTYPE svg PUBLIC "-//W3C//DTD SVG 1.1//EN" "http://www.w3.org/Graphics/SVG/1.1/DTD/svg11.dtd">
<svg version="1.1" id="Layer_1" xmlns="http://www.w3.org/2000/svg" xmlns:xlink="http://www.w3.org/1999/xlink" x="0px" y="0px"
	 width="612px" height="792px" viewBox="0 0 612 792" enable-background="new 0 0 612 792" xml:space="preserve">
<g>
	<g>
		<g>
			<g>
				<path fill="#FFFFFF" d="M233.76,390.934c-0.707-0.963-1.621-1.572-2.863-1.572c-1.191,0-2.331,0.912-2.331,2.154
					c0,3.219,7.579,1.875,7.579,8.285c0,3.828-2.385,6.539-6.286,6.539c-2.636,0-4.56-1.52-5.88-3.725l2.408-2.357
					c0.507,1.471,1.851,2.789,3.447,2.789c1.519,0,2.458-1.295,2.458-2.764c0-1.977-1.826-2.533-3.319-3.115
					c-2.459-1.014-4.259-2.256-4.259-5.221c0-3.168,2.356-5.727,5.575-5.727c1.699,0,4.055,0.836,5.219,2.127L233.76,390.934z"/>
				<path fill="#FFFFFF" d="M244.4,405.834h-3.725v-15.863h-3.854v-3.244h11.432v3.244H244.4V405.834z"/>
				<polygon fill="#FFFFFF" points="274.642,402.59 276.182,402.59 276.182,405.834 269.377,405.834 269.377,402.59 270.917,402.59 
					270.917,389.971 269.377,389.971 269.377,386.727 276.182,386.727 276.182,389.971 274.642,389.971 				"/>
				<path fill="#FFFFFF" d="M265.074,395.654c1.09,0,1.851,0.455,2.611,1.215v-3.42c-0.861-0.533-1.901-0.787-2.889-0.787
					c-2.438,0-4.43,1.256-5.531,3.146c-2.227-2.014-5.943-2.037-5.943-4.293c0-1.242,1.141-2.154,2.331-2.154
					c1.243,0,2.154,0.609,2.863,1.572l1.749-2.586c-1.165-1.291-3.521-2.127-5.22-2.127c-3.22,0-5.575,2.559-5.575,5.727
					c0,2.965,1.798,4.207,4.259,5.221c1.492,0.582,3.319,1.139,3.319,3.115c0,1.469-0.94,2.764-2.459,2.764
					c-1.597,0-2.94-1.318-3.446-2.789l-2.408,2.357c1.318,2.205,3.244,3.725,5.879,3.725c2.379,0,4.188-1.012,5.243-2.665
					c1.12,1.363,2.784,2.241,4.761,2.241c1.088,0,2.103-0.229,3.066-0.76v-3.422c-0.635,0.711-1.521,1.191-2.484,1.191
					c-2.029,0-3.269-1.621-3.269-3.574C261.933,397.527,263.073,395.654,265.074,395.654z"/>
			</g>
		</g>
		<g>
			<path fill="#FFFFFF" d="M294.167,387.258c-0.335-0.456-0.768-0.744-1.355-0.744c-0.564,0-1.104,0.432-1.104,1.02
				c0,1.523,3.586,0.888,3.586,3.922c0,1.811-1.127,3.094-2.975,3.094c-1.247,0-2.159-0.719-2.782-1.762l1.14-1.116
				c0.239,0.696,0.875,1.319,1.631,1.319c0.72,0,1.163-0.611,1.163-1.307c0-0.936-0.863-1.199-1.571-1.476
				c-1.164-0.479-2.015-1.067-2.015-2.471c0-1.499,1.115-2.71,2.639-2.71c0.804,0,1.919,0.395,2.471,1.007L294.167,387.258z"/>
			<path fill="#FFFFFF" d="M297.983,394.31h-1.763v-9.043h2.398c1.895,0,3.13,0.755,3.13,2.807c0,1.919-1.043,2.854-2.89,2.854
				h-0.876V394.31z M297.983,389.465h0.36c1.043,0,1.607-0.229,1.607-1.404c0-1.163-0.671-1.331-1.655-1.331h-0.312V389.465z"/>
			<path fill="#FFFFFF" d="M303.446,392.402l-0.744,1.907h-1.859l3.526-9.282h1.367l3.431,9.282h-1.884l-0.695-1.907H303.446z
				 M304.969,387.678h-0.023l-0.996,3.285h2.147L304.969,387.678z"/>
			<path fill="#FFFFFF" d="M315.516,387.665c-0.492-0.6-1.235-0.96-1.991-0.96c-1.691,0-2.663,1.56-2.663,3.119
				c0,1.523,1.008,3.046,2.651,3.046c0.755,0,1.511-0.396,2.003-0.959v2.099c-0.66,0.312-1.319,0.539-2.051,0.539
				c-2.543,0-4.426-2.194-4.426-4.689c0-2.566,1.811-4.832,4.461-4.832c0.708,0,1.403,0.191,2.016,0.527V387.665z"/>
			<path fill="#FFFFFF" d="M318.445,386.802v1.991h2.807v1.535h-2.807v2.446h2.914v1.535h-4.677v-9.043h4.677v1.535H318.445z"/>
			<path fill="#FFFFFF" d="M328.944,394.31h-1.763v-7.508h-1.823v-1.535h5.409v1.535h-1.823V394.31z"/>
			<path fill="#FFFFFF" d="M333.182,386.802v1.991h2.806v1.535h-2.806v2.446h2.914v1.535h-4.678v-9.043h4.678v1.535H333.182z"/>
			<path fill="#FFFFFF" d="M339.037,392.774h2.494v1.535h-4.257v-9.043h1.763V392.774z"/>
			<path fill="#FFFFFF" d="M343.861,386.802v1.991h2.807v1.535h-2.807v2.446h2.914v1.535h-4.678v-9.043h4.678v1.535H343.861z"/>
			<path fill="#FFFFFF" d="M352.211,387.258c-0.335-0.456-0.768-0.744-1.354-0.744c-0.563,0-1.104,0.432-1.104,1.02
				c0,1.523,3.586,0.888,3.586,3.922c0,1.811-1.128,3.094-2.975,3.094c-1.247,0-2.159-0.719-2.782-1.762l1.14-1.116
				c0.239,0.696,0.875,1.319,1.631,1.319c0.72,0,1.163-0.611,1.163-1.307c0-0.936-0.863-1.199-1.57-1.476
				c-1.164-0.479-2.016-1.067-2.016-2.471c0-1.499,1.115-2.71,2.639-2.71c0.804,0,1.919,0.395,2.471,1.007L352.211,387.258z"/>
			<path fill="#FFFFFF" d="M360.311,387.665c-0.492-0.6-1.235-0.96-1.991-0.96c-1.69,0-2.662,1.56-2.662,3.119
				c0,1.523,1.007,3.046,2.65,3.046c0.756,0,1.511-0.396,2.003-0.959v2.099c-0.66,0.312-1.319,0.539-2.051,0.539
				c-2.543,0-4.426-2.194-4.426-4.689c0-2.566,1.811-4.832,4.462-4.832c0.707,0,1.403,0.191,2.015,0.527V387.665z"/>
			<path fill="#FFFFFF" d="M361.046,389.775c0-2.529,1.835-4.748,4.474-4.748s4.474,2.219,4.474,4.748
				c0,2.592-1.835,4.773-4.474,4.773S361.046,392.367,361.046,389.775z M362.869,389.704c0,1.367,1.151,3.106,2.65,3.106
				s2.65-1.739,2.65-3.106c0-1.464-1.104-2.938-2.65-2.938S362.869,388.24,362.869,389.704z"/>
			<path fill="#FFFFFF" d="M372.625,394.31h-1.764v-9.043h2.399c1.895,0,3.13,0.755,3.13,2.807c0,1.919-1.043,2.854-2.891,2.854
				h-0.875V394.31z M372.625,389.465h0.359c1.044,0,1.607-0.229,1.607-1.404c0-1.163-0.672-1.331-1.655-1.331h-0.312V389.465z"/>
			<path fill="#FFFFFF" d="M378.961,386.802v1.991h2.807v1.535h-2.807v2.446h2.914v1.535h-4.678v-9.043h4.678v1.535H378.961z"/>
			<path fill="#FFFFFF" d="M294.167,400.258c-0.335-0.456-0.768-0.744-1.355-0.744c-0.564,0-1.104,0.432-1.104,1.02
				c0,1.523,3.586,0.888,3.586,3.922c0,1.811-1.127,3.094-2.975,3.094c-1.247,0-2.159-0.719-2.782-1.762l1.14-1.116
				c0.239,0.696,0.875,1.319,1.631,1.319c0.72,0,1.163-0.611,1.163-1.307c0-0.936-0.863-1.199-1.571-1.476
				c-1.164-0.479-2.015-1.067-2.015-2.471c0-1.499,1.115-2.71,2.639-2.71c0.804,0,1.919,0.395,2.471,1.007L294.167,400.258z"/>
			<path fill="#FFFFFF" d="M302.266,400.665c-0.492-0.6-1.235-0.96-1.991-0.96c-1.691,0-2.663,1.56-2.663,3.119
				c0,1.523,1.007,3.046,2.651,3.046c0.755,0,1.511-0.396,2.003-0.959v2.099c-0.66,0.312-1.319,0.539-2.051,0.539
				c-2.542,0-4.425-2.194-4.425-4.689c0-2.566,1.811-4.832,4.461-4.832c0.708,0,1.403,0.191,2.015,0.527V400.665z"/>
			<path fill="#FFFFFF" d="M305.196,407.31h-1.763v-9.043h1.763V407.31z"/>
			<path fill="#FFFFFF" d="M308.244,399.802v1.991h2.806v1.535h-2.806v2.446h2.914v1.535h-4.678v-9.043h4.678v1.535H308.244z"/>
			<path fill="#FFFFFF" d="M312.337,398.027h1.271l4.762,6.32h0.024v-6.081h1.763v9.223h-1.271l-4.762-6.32H314.1v6.141h-1.763
				V398.027z"/>
			<path fill="#FFFFFF" d="M327.489,400.665c-0.491-0.6-1.235-0.96-1.991-0.96c-1.691,0-2.662,1.56-2.662,3.119
				c0,1.523,1.008,3.046,2.65,3.046c0.756,0,1.512-0.396,2.003-0.959v2.099c-0.659,0.312-1.319,0.539-2.051,0.539
				c-2.543,0-4.426-2.194-4.426-4.689c0-2.566,1.812-4.832,4.462-4.832c0.707,0,1.402,0.191,2.015,0.527V400.665z"/>
			<path fill="#FFFFFF" d="M330.42,399.802v1.991h2.806v1.535h-2.806v2.446h2.914v1.535h-4.678v-9.043h4.678v1.535H330.42z"/>
			<path fill="#FFFFFF" d="M339.743,407.31h-1.763v-9.043h1.763V407.31z"/>
			<path fill="#FFFFFF" d="M341.028,398.027h1.271l4.762,6.32h0.024v-6.081h1.763v9.223h-1.271l-4.762-6.32h-0.023v6.141h-1.763
				V398.027z"/>
			<path fill="#FFFFFF" d="M354.394,400.258c-0.336-0.456-0.768-0.744-1.355-0.744c-0.563,0-1.103,0.432-1.103,1.02
				c0,1.523,3.586,0.888,3.586,3.922c0,1.811-1.128,3.094-2.975,3.094c-1.248,0-2.159-0.719-2.783-1.762l1.14-1.116
				c0.24,0.696,0.876,1.319,1.632,1.319c0.719,0,1.163-0.611,1.163-1.307c0-0.936-0.864-1.199-1.571-1.476
				c-1.164-0.479-2.016-1.067-2.016-2.471c0-1.499,1.116-2.71,2.639-2.71c0.804,0,1.92,0.395,2.471,1.007L354.394,400.258z"/>
			<path fill="#FFFFFF" d="M359.386,407.31h-1.763v-7.508H355.8v-1.535h5.409v1.535h-1.823V407.31z"/>
			<path fill="#FFFFFF" d="M363.623,407.31h-1.764v-9.043h1.764V407.31z"/>
			<path fill="#FFFFFF" d="M367.846,407.31h-1.763v-7.508h-1.823v-1.535h5.409v1.535h-1.823V407.31z"/>
			<path fill="#FFFFFF" d="M370.271,398.267h1.764v5.062c0,1.115,0.096,2.686,1.595,2.686s1.595-1.57,1.595-2.686v-5.062h1.764
				v5.409c0,2.207-0.936,3.873-3.358,3.873s-3.358-1.666-3.358-3.873V398.267z"/>
			<path fill="#FFFFFF" d="M381.178,407.31h-1.763v-7.508h-1.823v-1.535h5.409v1.535h-1.823V407.31z"/>
			<path fill="#FFFFFF" d="M385.414,399.802v1.991h2.807v1.535h-2.807v2.446h2.914v1.535h-4.677v-9.043h4.677v1.535H385.414z"/>
		</g>
		<rect x="282.687" y="385.264" fill="#FFFFFF" width="1" height="22.057"/>
	</g>
</g>
</svg>
